PathFileType	4	(X/Y/Z)	D:\TRACE\v60_Jaco2_6-2-23\JustBodyDRS_Motion1_2-platform.trc
DataRate	CameraRate	NumFrames	NumMarkers	Units	OrigDataRate	OrigDataStartFrame	OrigNumFrames
100.00	100.00	      53	5	mm	100.00	6085	      6954
Frame#	Time	Left_Front			Right_Front			Left_Aft			Right_Aft			Post			
		X1	Y1	Z1	X2	Y2	Z2	X3	Y3	Z3	X4	Y4	Z4	X5	Y5	Z5	

6085	60.840	-797.36505	-19.56797	-644.97900	772.65381	-17.94011	-650.55090	-705.67566	27.00168	489.15845	736.82245	27.24447	498.70712	-11.63128	1265.14429	-1022.96191	
6086	60.850	-798.63593	-19.41080	-645.02826	771.98730	-17.92929	-650.66479	-706.59558	26.86933	489.19714	735.66870	27.15088	498.71347	-12.43559	1265.38538	-1022.64258	
6087	60.860	-799.30127	-19.35837	-645.10730	770.86987	-18.00667	-650.94623	-707.51886	26.76550	489.20786	734.74054	27.11719	498.80246	-13.80758	1265.56909	-1022.03839	
6088	60.870	-800.30609	-19.26777	-644.94397	770.05438	-18.17007	-650.78815	-708.57465	26.65683	489.42624	733.74817	26.96272	498.80865	-14.54354	1265.65417	-1021.66290	
6089	60.880	-800.95587	-19.17491	-645.05396	768.65790	-18.02935	-650.71875	-709.49420	26.63248	489.56866	733.08008	26.92151	499.24881	-15.66669	1265.85229	-1020.95703	
6090	60.890	-802.41443	-19.02976	-644.98712	767.96619	-17.73264	-650.70984	-710.25031	26.54164	489.50278	732.24731	26.85363	499.21942	-16.58835	1266.18225	-1020.64435	
6091	60.900	-803.18872	-18.80260	-644.98071	766.81781	-17.35108	-650.25677	-711.37274	26.21152	489.46875	730.88831	26.84027	498.83105	-17.26833	1266.49463	-1020.42743	
6092	60.910	-804.07733	-18.84687	-644.89697	765.98083	-17.29412	-650.24323	-712.40649	26.40094	489.28586	730.05438	26.64403	498.86746	-18.54578	1266.78076	-1020.01117	
6093	60.920	-805.08478	-18.62991	-644.81683	765.03802	-17.07822	-650.07379	-713.59613	26.34444	489.33954	729.15717	26.41995	498.92920	-19.38525	1266.78723	-1020.04877	
6094	60.930	-806.22125	-18.45123	-644.85718	763.69641	-16.99595	-650.32288	-714.39551	26.13737	489.67429	727.91553	26.29342	499.06955	-20.47784	1267.16089	-1020.07751	
6095	60.940	-806.69916	-18.40413	-644.67328	763.00629	-16.72878	-650.17126	-715.13702	25.91809	489.70850	727.05957	26.16842	499.22488	-21.11857	1267.49390	-1019.87372	
6096	60.950	-807.87622	-18.15670	-644.57990	761.96210	-16.41951	-650.01324	-716.31946	25.97986	489.79773	726.13147	26.13084	499.21527	-22.04049	1267.93176	-1019.39288	
6097	60.960	-809.16321	-17.77402	-644.49011	761.21014	-16.18073	-649.87201	-717.33923	25.85510	489.61240	725.10803	25.95063	499.32300	-23.13621	1268.19922	-1019.26428	
6098	60.970	-810.08063	-17.51812	-644.60529	759.91980	-16.06664	-650.08154	-717.92743	25.47398	489.73892	724.33405	25.76783	499.49536	-24.11323	1268.65527	-1018.79749	
6099	60.980	-810.78870	-17.30808	-644.62323	759.11047	-15.88194	-649.88678	-719.19556	25.16525	489.80939	723.16132	25.55688	499.42694	-24.58210	1268.84436	-1018.48413	
6100	60.990	-811.64148	-17.12350	-644.22998	758.13318	-15.68721	-649.78668	-720.08447	25.17524	490.00314	722.26709	25.26031	499.48593	-25.97602	1269.20349	-1017.84003	
6101	61.000	-813.04456	-16.72248	-644.44415	756.89050	-15.45830	-649.86157	-721.10870	25.14843	490.06973	721.34222	25.20757	499.60693	-26.90138	1269.46912	-1017.14465	
6102	61.010	-813.92938	-16.33301	-644.59235	756.06342	-15.06972	-649.67279	-722.11273	24.87903	490.18677	720.32172	25.11674	499.56296	-27.74829	1269.78015	-1016.19751	
6103	61.020	-814.73987	-16.29356	-644.43024	755.32733	-14.87021	-649.71198	-722.79474	24.68055	490.14349	719.36975	25.00590	499.54666	-29.07622	1270.41016	-1015.43030	
6104	61.030	-815.73737	-15.91688	-644.14478	754.27612	-14.67163	-649.78101	-723.78101	24.56316	490.16635	718.21545	24.74092	499.73914	-29.84795	1270.58325	-1014.55798	
6105	61.040	-816.66949	-15.72707	-644.33264	752.95972	-14.60068	-649.76385	-724.98126	24.45707	490.30310	717.48193	24.40376	499.78922	-30.77968	1270.95947	-1014.00818	
6106	61.050	-817.57410	-15.27981	-644.57581	752.15344	-14.14935	-649.64264	-725.81177	24.31141	490.50607	716.66620	24.26848	499.81918	-32.08592	1271.49316	-1013.08606	
6107	61.060	-818.49194	-14.99662	-644.09326	751.49542	-13.62974	-649.55670	-726.76080	24.14826	490.45062	715.56580	24.22973	499.96085	-32.67002	1272.09192	-1012.68726	
6108	61.070	-819.46997	-14.87931	-643.82141	750.36694	-13.35882	-649.53156	-727.73212	24.10333	490.49765	714.71027	24.07390	500.15631	-33.70869	1272.44910	-1011.99255	
6109	61.080	-820.54181	-14.68600	-643.92316	749.47723	-13.56003	-649.40179	-728.49701	23.73699	490.58243	713.93610	23.80362	500.09726	-34.63442	1272.97827	-1011.90387	
6110	61.090	-821.36462	-14.62417	-644.22113	748.41718	-13.08625	-649.41522	-729.46606	23.50423	490.74655	712.47852	23.44676	500.31439	-35.27030	1273.37292	-1011.69843	
6111	61.100	-822.48474	-14.43429	-643.95673	747.81140	-12.83987	-649.34644	-730.30829	23.22385	490.71964	711.91205	23.20015	500.28723	-36.11530	1273.74695	-1011.09943	
6112	61.110	-823.19287	-13.75661	-643.67407	746.64117	-12.49251	-649.21362	-731.52783	22.96582	490.88623	710.81274	22.90407	500.28253	-37.24320	1274.40161	-1010.98529	
6113	61.120	-824.09625	-13.35458	-643.60614	745.68927	-12.16742	-649.09302	-732.34558	22.81290	491.14435	710.05835	22.64074	500.37912	-38.32851	1274.72131	-1010.03650	
6114	61.130	-825.25232	-12.90624	-643.77271	745.01495	-11.59374	-648.85486	-733.13861	22.60110	491.30664	709.14063	22.43800	500.56250	-38.74417	1275.11609	-1009.51202	
6115	61.140	-825.96472	-12.73818	-643.65582	743.95190	-11.14948	-648.96509	-734.03296	22.44731	491.24927	708.29718	22.22262	500.68701	-39.86549	1275.74121	-1008.58850	
6116	61.150	-826.82373	-12.44265	-643.36621	743.30811	-11.05421	-648.81305	-734.93854	22.24669	491.31363	707.50800	21.95625	500.69818	-40.79760	1276.29590	-1007.90369	
6117	61.160	-827.59467	-12.16850	-643.55249	742.29004	-10.77672	-648.87006	-735.87067	21.97988	491.37497	706.57086	21.55848	501.23508	-41.53376	1276.95508	-1006.68085	
6118	61.170	-828.78973	-11.56998	-643.40063	741.23181	-10.24185	-648.74072	-736.89081	21.76949	491.48846	705.42816	21.25500	501.18796	-42.38912	1277.27441	-1005.51752	
6119	61.180	-829.69055	-11.26983	-643.35992	740.48553	-9.97098	-648.60889	-737.66528	21.59480	491.70285	704.95154	21.19874	501.30936	-43.63483	1278.00061	-1004.77136	
6120	61.190	-830.35919	-10.98686	-643.04211	739.68628	-9.55084	-648.60596	-738.46655	21.34122	491.73291	703.96887	21.07066	501.53220	-44.40089	1278.51379	-1003.90845	
6121	61.200	-831.03369	-10.54935	-643.10046	738.77051	-9.04114	-648.42181	-739.24017	21.07155	491.69226	703.11920	20.72653	501.51096	-45.21451	1279.11523	-1002.85657	
6122	61.210	-832.10461	-10.11417	-643.05841	738.09009	-8.84118	-648.24426	-740.18494	20.79058	491.71893	702.36322	20.42297	501.53497	-45.85536	1279.77673	-1001.94177	
6123	61.220	-832.98083	-9.75782	-642.94147	737.08978	-8.45407	-648.26294	-740.92590	20.44671	491.95053	701.62714	20.19180	501.73883	-46.49068	1280.29346	-1001.41577	
6124	61.230	-833.52930	-9.43631	-642.86194	736.57117	-8.01827	-648.08789	-741.69458	20.11371	492.14035	700.72211	19.93238	502.00284	-47.49623	1280.85632	-1000.64771	
6125	61.240	-834.35413	-9.02499	-642.47882	735.70538	-7.60222	-647.92090	-742.73694	19.92796	492.20712	700.06152	19.61881	502.06943	-48.43964	1281.39526	-1000.10059	
6126	61.250	-835.23383	-8.41802	-642.48553	734.84705	-6.96530	-647.85565	-743.36780	19.65919	492.28049	699.14734	19.28586	502.02173	-49.28928	1282.38159	-999.25104	
6127	61.260	-835.97473	-7.96263	-642.38507	734.13806	-6.72159	-647.80353	-744.00726	19.40059	492.31168	698.16040	19.06370	502.08374	-49.47812	1282.94092	-998.46307	
6128	61.270	-836.67139	-7.56174	-642.63489	733.30811	-6.31137	-647.72809	-744.82794	19.10178	492.37656	697.44580	18.76237	502.22656	-50.76198	1283.42859	-997.34961	
6129	61.280	-837.41895	-7.49739	-642.45575	732.33521	-5.98015	-647.68811	-745.81458	18.84870	492.68323	696.73358	18.36880	502.34744	-51.57567	1283.77307	-996.46466	
6130	61.290	-838.48608	-6.82021	-642.00970	731.87988	-5.69948	-647.47742	-746.36841	18.60255	492.79813	695.69421	18.10282	502.58954	-51.88203	1284.33508	-995.60223	
6131	61.300	-839.06409	-6.42453	-641.97070	731.09595	-5.10399	-647.41418	-747.22113	18.34115	492.89795	695.11578	17.89305	502.62079	-52.64481	1285.27673	-994.29712	
6132	61.310	-839.44501	-6.03936	-641.78058	730.37909	-4.70744	-647.46423	-747.90082	18.24622	493.03845	694.66125	17.62543	502.45236	-53.31529	1285.83826	-993.69452	
6133	61.320	-840.38953	-5.71945	-641.90863	729.78418	-4.43164	-647.17944	-748.53387	17.93452	493.13541	694.09039	17.33879	502.54816	-54.16272	1286.68054	-992.54456	
6134	61.330	-840.97656	-5.37577	-641.72968	729.08344	-3.97258	-647.05084	-749.20667	17.49713	493.19498	692.87335	16.97161	502.75589	-54.45642	1287.25073	-991.57275	
6135	61.340	-841.96893	-4.85607	-641.54218	728.38757	-3.59985	-647.12732	-749.67267	17.12544	493.44327	692.20160	16.46985	502.91440	-55.09932	1287.74341	-990.51544	
6136	61.350	-842.59479	-4.54815	-641.50006	727.57904	-3.10200	-647.05963	-750.53241	16.83533	493.60513	691.91199	16.13165	502.98315	-56.32109	1288.53967	-989.58557	
6137	61.360	-842.99384	-3.77621	-641.61267	727.16547	-2.53763	-646.67194	-751.24591	16.54640	493.66238	691.25317	15.86581	503.13660	-56.57428	1289.19946	-988.78149	
